# xmcd
#
# Track frame offsets: 
#        150
#        16975
#        31825
#        46302
#        57115
#        69540
#        81100
#        95255
#        110405
#        123615
#
# Disc length: 1734 seconds
#
# Revision: 0
# Processed by: cddbd v1.5.2PL0 Copyright (c) Steve Scherf et al.
# Submitted via: ExactAudioCopyFreeDBPlugin 1.0
#
DISCID=7906c40a
DTITLE=Compilation - Legends of  Bluegrass disc 2
DYEAR=2002
DGENRE=Bluegrass
TTITLE0=Minglewood Blues - Cannon's Jug Stompers
TTITLE1=Got the Farmland Blues - The Carolina Tar Heals
TTITLE2=He's In the Jail House Now - Memphis Sheiks
TTITLE3=Little Maggie - Wade Mainer, Zeke Morris and Steve Ledford
TTITLE4=Shady Grove - Prairie Ramblers
TTITLE5=K. C. Moan - Memphis Jug Band
TTITLE6=Kassie Jones. Part 1 - Ferry Lewis
TTITLE7=Sugar Cane Mama - The Carlisle Brothers
TTITLE8=Bumble Bee Blues - Memphis Minnie with The Memphis Jug Band
TTITLE9=Oh Death Where is Thy Sting - Reverand J.M. Gates
EXTD=
EXTT0=
EXTT1=
EXTT2=
EXTT3=
EXTT4=
EXTT5=
EXTT6=
EXTT7=
EXTT8=
EXTT9=
PLAYORDER=
